# xmcd
#
# Track frame offsets: 
#        150
#        14884
#        31130
#        51045
#        65952
#        75595
#        90747
#        105112
#        123685
#        142255
#        159022
#        178907
#
# Disc length: 2631 seconds
#
# Revision: 0
# Processed by: cddbd v1.5.2PL0 Copyright (c) Steve Scherf et al.
# Submitted via: ExactAudioCopy v1.0b3
#
DISCID=a10a450c
DTITLE=Rob Culver and the Band of Believers - The Missionary
DYEAR=2004
DGENRE=Christian Country
TTITLE0=Just Like That!
TTITLE1=The Thing I Remember Most
TTITLE2=Since I Met Jesus
TTITLE3=I Am Bound for the Promised Land
TTITLE4=I'll Fly Away (Instrumental)
TTITLE5=Just Over In the Glory Land
TTITLE6=Jesus Came Along
TTITLE7=Tavern to a Temple
TTITLE8=Love Lifted Me
TTITLE9=Hector's Song
TTITLE10=If It Weren't for Grace
TTITLE11=The Old Rugged Cross
EXTD=
EXTT0=
EXTT1=
EXTT2=
EXTT3=
EXTT4=
EXTT5=
EXTT6=
EXTT7=
EXTT8=
EXTT9=
EXTT10=
EXTT11=
PLAYORDER=
